<svg id="svg" version="1.1" xmlns="http://www.w3.org/2000/svg" xmlns:xlink="http://www.w3.org/1999/xlink" width="400" height="447.682119205298" viewBox="0, 0, 400,447.682119205298"><g id="svgg"><path id="path0" d="M19.600 17.200 C 19.600 17.465,49.267 17.600,107.800 17.600 C 166.333 17.600,196.000 17.465,196.000 17.200 C 196.000 16.935,166.333 16.800,107.800 16.800 C 49.267 16.800,19.600 16.935,19.600 17.200 M216.100 17.398 C 215.501 18.079,215.447 18.800,215.996 18.800 C 216.257 18.800,216.428 47.848,216.496 103.367 C 216.553 149.878,216.745 188.078,216.922 188.255 C 217.309 188.642,218.058 187.581,217.833 186.964 C 217.746 186.724,227.918 176.296,240.437 163.791 C 252.957 151.285,263.200 141.267,263.200 141.527 C 263.200 141.787,263.470 142.000,263.800 142.000 C 264.130 142.000,264.400 141.730,264.400 141.400 C 264.400 141.070,264.210 140.800,263.978 140.800 C 263.746 140.800,264.327 139.978,265.269 138.973 C 266.211 137.967,267.046 137.337,267.124 137.573 C 267.342 138.225,268.400 138.082,268.400 137.400 C 268.400 137.070,268.192 136.800,267.937 136.800 C 267.683 136.800,269.054 135.225,270.985 133.300 C 273.059 131.232,274.571 130.005,274.681 130.300 C 274.783 130.575,275.110 130.800,275.406 130.800 C 276.107 130.800,276.625 129.187,276.041 128.825 C 275.773 128.660,277.611 126.577,280.667 123.582 C 283.472 120.833,285.811 118.834,285.902 119.107 C 286.160 119.880,287.119 119.684,287.400 118.800 C 287.540 118.360,287.806 118.000,287.992 118.000 C 288.249 118.000,297.803 108.591,301.081 105.111 C 301.345 104.830,301.795 104.384,302.081 104.119 C 302.366 103.855,302.816 103.405,303.081 103.119 C 303.345 102.834,303.795 102.384,304.081 102.119 C 304.366 101.855,304.816 101.405,305.081 101.119 C 305.345 100.834,305.795 100.384,306.081 100.119 C 306.366 99.855,306.816 99.405,307.081 99.119 C 307.345 98.834,307.795 98.380,308.081 98.111 C 308.366 97.842,308.804 97.417,309.054 97.165 C 309.304 96.914,311.824 94.397,314.654 91.571 C 317.484 88.746,320.016 86.201,320.281 85.917 C 320.545 85.633,320.995 85.184,321.281 84.919 C 321.566 84.655,322.016 84.205,322.281 83.919 C 322.545 83.634,322.995 83.184,323.281 82.919 C 323.566 82.655,324.016 82.205,324.281 81.919 C 324.545 81.634,324.995 81.184,325.281 80.919 C 325.566 80.655,326.016 80.205,326.281 79.919 C 326.545 79.634,326.995 79.180,327.281 78.911 C 327.566 78.642,327.980 78.239,328.200 78.016 C 328.420 77.792,330.445 75.803,332.700 73.596 C 336.828 69.556,337.215 69.027,336.300 68.674 C 336.004 68.560,337.376 66.917,339.669 64.642 C 342.261 62.070,343.740 60.879,344.149 61.036 C 344.726 61.257,345.433 60.853,346.519 59.681 C 346.784 59.395,347.231 58.945,347.512 58.681 C 351.267 55.158,351.867 54.289,350.789 53.930 C 350.563 53.854,352.813 51.404,355.789 48.484 C 358.765 45.564,361.200 43.361,361.200 43.588 C 361.200 44.446,362.359 43.940,363.719 42.486 C 365.047 41.067,365.235 40.780,365.041 40.466 C 364.781 40.045,367.359 37.492,367.700 37.833 C 368.086 38.219,379.600 27.161,379.600 26.404 C 379.600 26.212,379.951 25.943,380.380 25.806 C 380.808 25.670,381.267 25.217,381.400 24.800 C 381.533 24.383,381.983 23.933,382.400 23.800 C 382.817 23.667,383.267 23.217,383.400 22.800 C 383.533 22.383,383.983 21.933,384.400 21.800 C 384.817 21.667,385.267 21.217,385.400 20.800 C 385.533 20.383,385.983 19.933,386.400 19.800 C 387.274 19.523,387.732 18.411,387.366 17.456 C 387.008 16.522,216.922 16.464,216.100 17.398 M290.300 18.300 C 276.715 18.358,254.485 18.358,240.900 18.300 C 227.315 18.242,238.430 18.194,265.600 18.194 C 292.770 18.194,303.885 18.242,290.300 18.300 M356.100 18.300 C 348.565 18.361,336.235 18.361,328.700 18.300 C 321.165 18.239,327.330 18.189,342.400 18.189 C 357.470 18.189,363.635 18.239,356.100 18.300 M381.321 18.298 C 379.297 18.370,375.877 18.371,373.721 18.298 C 371.564 18.226,373.220 18.167,377.400 18.167 C 381.580 18.166,383.344 18.225,381.321 18.298 M19.861 89.473 C 19.717 89.616,19.600 89.883,19.600 90.067 C 19.600 90.250,42.730 90.400,71.000 90.400 C 116.533 90.400,122.400 90.331,122.400 89.797 C 122.400 89.167,20.489 88.844,19.861 89.473 M318.354 111.300 C 318.319 111.977,318.262 112.027,318.124 111.500 C 317.901 110.646,316.800 110.563,316.800 111.400 C 316.800 111.730,316.965 112.000,317.166 112.000 C 317.367 112.000,316.962 112.592,316.266 113.315 C 315.570 114.039,314.863 114.567,314.696 114.489 C 314.529 114.412,314.034 114.462,313.596 114.601 C 312.647 114.902,312.546 115.817,313.425 116.154 C 313.769 116.286,313.944 116.568,313.813 116.780 C 313.682 116.992,313.310 117.064,312.987 116.940 C 312.621 116.799,312.400 116.956,312.400 117.357 C 312.400 117.711,312.580 118.000,312.800 118.000 C 313.020 118.000,313.195 118.495,313.188 119.100 C 313.177 120.040,313.117 120.098,312.768 119.500 C 312.544 119.115,312.189 118.800,311.980 118.800 C 311.742 118.800,311.600 141.905,311.600 180.827 C 311.600 242.672,311.602 242.853,312.400 242.600 C 313.151 242.362,313.200 242.528,313.200 245.340 C 313.200 247.360,313.363 248.399,313.700 248.535 C 313.975 248.646,313.795 248.751,313.300 248.768 C 312.781 248.787,312.400 249.054,312.400 249.400 C 312.400 249.929,316.956 250.000,351.000 250.000 L 389.600 250.000 389.600 180.600 L 389.600 111.200 354.400 111.200 C 331.200 111.200,319.200 111.064,319.200 110.800 C 319.200 109.967,318.398 110.441,318.354 111.300 M283.600 148.600 C 283.600 148.930,283.870 149.200,284.200 149.200 C 284.530 149.200,284.800 149.380,284.800 149.600 C 284.800 149.820,284.980 150.000,285.200 150.000 C 285.420 150.000,285.600 149.550,285.600 149.000 C 285.600 148.200,285.400 148.000,284.600 148.000 C 283.978 148.000,283.600 148.227,283.600 148.600 M270.600 163.460 C 262.943 171.161,257.346 176.498,257.271 176.168 C 257.200 175.856,256.977 175.600,256.775 175.600 C 256.503 175.600,243.592 188.390,239.319 192.893 C 239.055 193.172,238.605 193.620,238.319 193.889 C 238.034 194.158,237.620 194.564,237.400 194.791 C 237.180 195.018,235.470 196.700,233.600 198.529 C 231.730 200.357,229.539 202.591,228.732 203.492 C 227.925 204.394,227.172 205.039,227.059 204.926 C 226.946 204.813,226.938 205.054,227.041 205.460 C 227.243 206.263,219.968 213.893,219.188 213.696 C 218.661 213.563,201.824 229.891,198.922 233.349 C 198.660 233.662,198.223 233.992,197.951 234.083 C 197.680 234.173,197.583 234.449,197.735 234.695 C 198.101 235.286,198.077 335.551,197.712 336.143 C 197.556 336.394,197.481 337.095,197.545 337.700 C 197.608 338.305,197.467 338.800,197.230 338.800 C 196.994 338.800,196.800 339.070,196.800 339.400 C 196.800 339.730,196.980 340.000,197.200 340.000 C 197.464 340.000,197.600 355.600,197.600 386.000 L 197.600 432.000 293.600 432.000 L 389.600 432.000 389.600 393.800 L 389.600 355.600 337.600 355.600 L 285.600 355.600 285.600 352.357 C 285.600 349.706,285.495 349.155,285.027 349.334 C 284.038 349.714,284.037 349.562,284.043 254.200 C 284.049 158.517,284.039 159.487,285.020 159.863 C 285.439 160.024,285.600 159.784,285.600 159.000 C 285.600 158.199,285.443 157.975,285.000 158.145 C 284.515 158.331,284.400 157.985,284.400 156.345 C 284.400 154.704,284.515 154.359,285.000 154.545 C 285.415 154.704,285.600 154.518,285.600 153.945 C 285.600 153.371,285.415 153.186,285.000 153.345 C 284.530 153.525,284.400 153.237,284.400 152.011 C 284.400 149.559,284.514 149.465,270.600 163.460 M317.305 248.682 C 316.814 248.777,315.914 248.779,315.305 248.687 C 314.697 248.595,315.100 248.517,316.200 248.514 C 317.300 248.511,317.797 248.587,317.305 248.682 M331.105 248.675 C 330.722 248.775,330.002 248.779,329.505 248.683 C 329.007 248.587,329.320 248.505,330.200 248.501 C 331.080 248.496,331.487 248.575,331.105 248.675 M335.905 248.675 C 335.522 248.775,334.802 248.779,334.305 248.683 C 333.807 248.587,334.120 248.505,335.000 248.501 C 335.880 248.496,336.287 248.575,335.905 248.675 M355.111 248.691 C 354.291 248.777,352.851 248.778,351.911 248.693 C 350.970 248.609,351.640 248.539,353.400 248.537 C 355.160 248.536,355.930 248.605,355.111 248.691 M376.900 248.682 C 376.405 248.778,375.595 248.778,375.100 248.682 C 374.605 248.587,375.010 248.509,376.000 248.509 C 376.990 248.509,377.395 248.587,376.900 248.682 M381.300 248.682 C 380.805 248.778,379.995 248.778,379.500 248.682 C 379.005 248.587,379.410 248.509,380.400 248.509 C 381.390 248.509,381.795 248.587,381.300 248.682 M386.505 248.682 C 386.014 248.777,385.114 248.779,384.505 248.687 C 383.897 248.595,384.300 248.517,385.400 248.514 C 386.500 248.511,386.997 248.587,386.505 248.682 M148.316 256.341 C 147.719 256.923,141.700 262.845,134.939 269.500 C 128.178 276.155,122.501 281.600,122.323 281.600 C 122.145 281.600,122.000 281.780,122.000 282.000 C 122.000 282.220,122.264 282.400,122.587 282.400 C 123.095 282.400,150.000 255.887,150.000 255.387 C 150.000 254.967,149.338 255.342,148.316 256.341 M121.600 259.800 C 121.600 260.130,121.780 260.400,122.000 260.400 C 122.220 260.400,122.400 260.130,122.400 259.800 C 122.400 259.470,122.220 259.200,122.000 259.200 C 121.780 259.200,121.600 259.470,121.600 259.800 M149.500 282.487 C 148.819 283.339,148.599 284.000,148.995 284.000 C 149.445 284.000,150.800 282.582,150.800 282.111 C 150.800 281.352,150.289 281.499,149.500 282.487 M147.200 285.033 C 147.200 285.382,147.414 285.595,147.675 285.508 C 148.417 285.261,148.540 284.400,147.833 284.400 C 147.485 284.400,147.200 284.685,147.200 285.033 M119.311 314.107 C 118.383 315.038,117.393 316.016,117.111 316.281 C 115.710 317.598,115.290 318.400,116.000 318.400 C 116.460 318.400,120.662 314.151,121.242 313.100 C 121.900 311.907,121.076 312.337,119.311 314.107 M102.000 322.600 C 102.000 322.930,102.180 323.200,102.400 323.200 C 102.620 323.200,102.800 322.930,102.800 322.600 C 102.800 322.270,102.620 322.000,102.400 322.000 C 102.180 322.000,102.000 322.270,102.000 322.600 M110.400 322.600 C 110.400 322.930,110.580 323.200,110.800 323.200 C 111.020 323.200,111.200 322.930,111.200 322.600 C 111.200 322.270,111.020 322.000,110.800 322.000 C 110.580 322.000,110.400 322.270,110.400 322.600 M108.800 323.200 C 108.800 323.420,109.070 323.600,109.400 323.600 C 109.730 323.600,110.000 323.420,110.000 323.200 C 110.000 322.980,109.730 322.800,109.400 322.800 C 109.070 322.800,108.800 322.980,108.800 323.200 M104.800 324.000 C 104.800 324.220,105.419 324.400,106.176 324.400 C 106.933 324.400,107.664 324.220,107.800 324.000 C 107.949 323.758,107.404 323.600,106.424 323.600 C 105.531 323.600,104.800 323.780,104.800 324.000 M19.600 329.000 C 19.600 329.330,19.780 329.600,20.000 329.600 C 20.220 329.600,20.400 329.330,20.400 329.000 C 20.400 328.670,20.220 328.400,20.000 328.400 C 19.780 328.400,19.600 328.670,19.600 329.000 M196.092 342.075 C 196.339 342.817,197.200 342.940,197.200 342.233 C 197.200 341.885,196.915 341.600,196.567 341.600 C 196.218 341.600,196.005 341.814,196.092 342.075 M195.600 344.200 C 195.600 344.530,195.780 344.800,196.000 344.800 C 196.220 344.800,196.400 344.530,196.400 344.200 C 196.400 343.870,196.220 343.600,196.000 343.600 C 195.780 343.600,195.600 343.870,195.600 344.200 M20.800 346.000 C 20.800 346.836,20.970 347.210,21.300 347.100 C 21.575 347.008,21.800 346.513,21.800 346.000 C 21.800 345.487,21.575 344.992,21.300 344.900 C 20.970 344.790,20.800 345.164,20.800 346.000 M194.077 348.030 C 194.156 348.267,194.391 348.460,194.600 348.460 C 194.809 348.460,195.044 348.267,195.123 348.030 C 195.202 347.793,194.967 347.600,194.600 347.600 C 194.233 347.600,193.998 347.793,194.077 348.030 M21.600 349.400 C 21.600 349.730,21.780 350.000,22.000 350.000 C 22.220 350.000,22.400 349.730,22.400 349.400 C 22.400 349.070,22.220 348.800,22.000 348.800 C 21.780 348.800,21.600 349.070,21.600 349.400 M192.800 351.400 C 192.800 351.730,192.980 352.000,193.200 352.000 C 193.420 352.000,193.600 351.730,193.600 351.400 C 193.600 351.070,193.420 350.800,193.200 350.800 C 192.980 350.800,192.800 351.070,192.800 351.400 M22.000 352.600 C 22.000 352.930,22.270 353.200,22.600 353.200 C 22.930 353.200,23.200 352.930,23.200 352.600 C 23.200 352.270,22.930 352.000,22.600 352.000 C 22.270 352.000,22.000 352.270,22.000 352.600 M22.800 354.600 C 22.800 354.967,22.994 355.202,23.230 355.123 C 23.466 355.045,23.660 354.809,23.660 354.600 C 23.660 354.391,23.466 354.156,23.230 354.077 C 22.994 353.998,22.800 354.233,22.800 354.600 M23.600 357.400 C 23.600 357.730,23.780 358.000,24.000 358.000 C 24.220 358.000,24.400 357.730,24.400 357.400 C 24.400 357.070,24.220 356.800,24.000 356.800 C 23.780 356.800,23.600 357.070,23.600 357.400 M25.600 362.600 C 25.600 362.930,25.780 363.200,26.000 363.200 C 26.220 363.200,26.400 362.930,26.400 362.600 C 26.400 362.270,26.220 362.000,26.000 362.000 C 25.780 362.000,25.600 362.270,25.600 362.600 M176.800 376.371 C 176.800 376.576,176.509 377.034,176.152 377.390 C 175.796 377.747,175.608 378.141,175.733 378.267 C 175.859 378.392,176.253 378.204,176.610 377.848 C 176.966 377.491,177.424 377.200,177.629 377.200 C 177.833 377.200,178.000 376.930,178.000 376.600 C 178.000 376.270,177.730 376.000,177.400 376.000 C 177.070 376.000,176.800 376.167,176.800 376.371 M34.000 378.600 C 34.000 378.967,34.194 379.202,34.430 379.123 C 34.667 379.045,34.860 378.809,34.860 378.600 C 34.860 378.391,34.667 378.156,34.430 378.077 C 34.194 377.998,34.000 378.233,34.000 378.600 M170.449 383.422 C 168.594 385.433,168.003 386.400,168.626 386.400 C 169.041 386.400,173.200 382.059,173.200 381.626 C 173.200 380.763,172.450 381.253,170.449 383.422 M40.000 386.600 C 40.000 386.967,40.194 387.202,40.430 387.123 C 40.667 387.045,40.860 386.809,40.860 386.600 C 40.860 386.391,40.667 386.156,40.430 386.077 C 40.194 385.998,40.000 386.233,40.000 386.600 M44.000 390.821 C 44.000 391.089,44.493 391.765,45.095 392.323 C 45.792 392.969,46.010 393.397,45.695 393.502 C 45.089 393.704,45.033 394.800,45.629 394.800 C 47.075 394.800,47.306 393.558,46.128 392.103 C 44.873 390.552,44.000 390.026,44.000 390.821 M127.897 426.102 C 124.525 429.276,123.948 430.000,124.790 430.000 C 125.179 430.000,132.000 423.376,132.000 422.998 C 132.000 422.411,131.065 423.118,127.897 426.102 M12.100 427.398 C 11.443 428.144,11.469 428.400,12.200 428.400 C 12.530 428.400,12.800 428.325,12.800 428.233 C 12.800 428.141,12.909 427.781,13.043 427.433 C 13.342 426.652,12.775 426.631,12.100 427.398 M8.800 430.633 C 8.800 430.982,9.014 431.195,9.275 431.108 C 10.017 430.861,10.140 430.000,9.433 430.000 C 9.085 430.000,8.800 430.285,8.800 430.633 " stroke="none" fill="#5a6973" fill-rule="evenodd"></path><path id="path1" d="M196.000 17.197 C 196.000 17.467,166.827 17.600,107.800 17.600 L 19.600 17.600 19.600 53.500 L 19.600 89.400 70.900 89.294 L 122.200 89.189 122.102 185.394 C 122.048 238.307,122.153 281.600,122.335 281.600 C 122.517 281.600,127.711 276.605,133.877 270.500 C 145.904 258.593,149.482 255.200,150.013 255.200 C 150.551 255.200,156.000 249.700,156.000 249.158 C 156.000 248.888,156.105 248.772,156.233 248.900 C 156.567 249.234,158.000 247.711,158.000 247.024 C 158.000 246.707,158.178 246.337,158.395 246.203 C 158.628 246.059,158.685 246.233,158.535 246.625 C 158.394 246.992,167.126 238.452,177.940 227.648 L 197.600 208.005 197.600 112.898 C 197.600 18.226,197.596 17.790,196.800 17.293 C 196.326 16.997,196.000 16.957,196.000 17.197 M240.900 18.300 C 254.485 18.358,276.715 18.358,290.300 18.300 C 303.885 18.242,292.770 18.194,265.600 18.194 C 238.430 18.194,227.315 18.242,240.900 18.300 M328.700 18.300 C 336.235 18.361,348.565 18.361,356.100 18.300 C 363.635 18.239,357.470 18.189,342.400 18.189 C 327.330 18.189,321.165 18.239,328.700 18.300 M373.721 18.298 C 375.877 18.371,379.297 18.370,381.321 18.298 C 383.344 18.225,381.580 18.166,377.400 18.167 C 373.220 18.167,371.564 18.226,373.721 18.298 M215.600 104.000 C 215.600 182.613,215.651 189.200,216.254 189.200 C 216.803 189.200,216.868 188.899,216.654 187.344 C 216.514 186.323,216.400 147.983,216.400 102.144 C 216.400 46.848,216.265 18.800,216.000 18.800 C 215.735 18.800,215.600 47.467,215.600 104.000 M366.044 38.954 C 365.075 39.954,364.864 40.393,365.242 40.626 C 365.538 40.809,365.820 40.741,365.912 40.464 C 366.117 39.848,367.043 38.924,367.693 38.686 C 368.050 38.555,368.076 38.367,367.779 38.049 C 367.473 37.721,367.001 37.967,366.044 38.954 M355.600 48.668 C 352.080 52.141,350.455 53.996,350.932 53.998 C 351.822 54.001,361.301 44.560,361.125 43.846 C 361.056 43.569,358.570 45.738,355.600 48.668 M339.700 64.522 C 336.093 68.106,335.561 68.800,336.415 68.800 C 336.936 68.800,344.000 61.708,344.000 61.185 C 344.000 60.398,343.311 60.933,339.700 64.522 M319.200 110.800 C 319.200 111.064,331.200 111.200,354.400 111.200 C 377.600 111.200,389.600 111.064,389.600 110.800 C 389.600 110.536,377.600 110.400,354.400 110.400 C 331.200 110.400,319.200 110.536,319.200 110.800 M316.400 111.986 C 316.400 112.184,316.057 112.455,315.637 112.588 C 314.796 112.855,314.194 113.992,314.687 114.381 C 314.859 114.517,315.560 114.046,316.244 113.335 C 317.145 112.400,317.338 111.985,316.944 111.834 C 316.645 111.719,316.400 111.787,316.400 111.986 M312.860 116.380 C 313.032 116.896,313.581 116.988,313.630 116.510 C 313.647 116.351,313.444 116.148,313.180 116.060 C 312.916 115.972,312.772 116.116,312.860 116.380 M312.406 118.500 C 312.420 119.642,313.188 120.226,313.194 119.100 C 313.197 118.495,313.020 118.000,312.800 118.000 C 312.580 118.000,312.403 118.225,312.406 118.500 M280.543 123.700 C 277.189 126.985,275.750 128.643,276.178 128.731 C 276.803 128.859,286.000 119.891,286.000 119.153 C 286.000 118.437,285.444 118.901,280.543 123.700 M270.843 133.401 C 268.677 135.593,267.731 136.800,268.176 136.800 C 268.902 136.800,274.800 131.105,274.800 130.405 C 274.800 129.571,274.112 130.092,270.843 133.401 M265.278 138.960 C 264.131 140.185,263.768 140.800,264.191 140.800 C 265.056 140.800,267.274 138.472,267.122 137.724 C 267.039 137.312,266.454 137.704,265.278 138.960 M240.344 163.918 C 227.883 176.393,217.769 186.811,217.867 187.070 C 218.109 187.702,263.285 142.512,263.125 141.798 C 263.055 141.481,253.130 151.118,240.344 163.918 M270.300 162.415 C 263.095 169.649,257.200 175.872,257.200 176.244 C 257.200 176.626,263.034 171.089,270.600 163.527 C 277.971 156.161,284.091 150.224,284.200 150.334 C 284.310 150.443,284.400 151.234,284.400 152.090 C 284.400 153.026,284.560 153.549,284.800 153.400 C 285.771 152.800,285.126 149.181,284.057 149.231 C 283.696 149.247,277.505 155.180,270.300 162.415 M284.400 156.424 C 284.400 157.671,284.553 158.352,284.800 158.200 C 285.020 158.064,285.200 157.153,285.200 156.176 C 285.200 155.199,285.020 154.400,284.800 154.400 C 284.580 154.400,284.400 155.311,284.400 156.424 M284.253 160.294 C 283.980 161.239,283.978 347.094,284.251 348.503 C 285.084 352.795,285.200 341.267,285.200 254.600 C 285.200 167.789,285.096 157.385,284.253 160.294 M223.940 208.180 C 222.103 210.039,220.385 211.821,220.122 212.140 C 219.860 212.458,219.410 212.804,219.122 212.909 C 218.749 213.046,218.722 213.230,219.027 213.557 C 219.496 214.059,226.732 207.077,227.281 205.593 C 227.724 204.394,227.543 204.535,223.940 208.180 M188.630 243.480 C 183.874 248.276,179.803 252.380,179.583 252.600 C 179.362 252.820,172.796 259.356,164.991 267.125 C 157.186 274.894,150.800 281.524,150.800 281.857 C 150.800 282.424,147.911 285.600,147.395 285.600 C 147.026 285.600,124.800 307.915,124.800 308.286 C 124.800 308.587,124.343 309.091,122.010 311.361 C 121.580 311.779,121.315 312.263,121.423 312.437 C 121.730 312.934,116.758 318.400,115.997 318.400 C 115.814 318.400,114.972 319.084,114.128 319.920 C 113.283 320.757,112.279 321.561,111.896 321.708 C 111.513 321.855,111.200 322.270,111.200 322.630 C 111.200 323.048,110.983 323.202,110.600 323.055 C 110.270 322.929,110.000 322.999,110.000 323.213 C 110.000 323.426,109.561 323.600,109.024 323.600 C 108.487 323.600,107.936 323.780,107.800 324.000 C 107.664 324.220,106.933 324.400,106.176 324.400 C 105.419 324.400,104.800 324.220,104.800 324.000 C 104.800 323.780,104.530 323.600,104.200 323.600 C 103.870 323.600,103.600 323.408,103.600 323.173 C 103.600 322.928,103.259 322.854,102.800 323.000 C 102.271 323.168,102.000 323.072,102.000 322.716 C 102.000 322.420,101.685 321.874,101.300 321.503 C 99.755 320.013,99.200 319.310,99.200 318.843 C 99.200 318.573,99.020 318.464,98.800 318.600 C 98.580 318.736,98.400 318.582,98.400 318.257 C 98.400 317.932,98.175 317.592,97.900 317.500 C 97.505 317.369,97.377 308.846,97.291 277.067 L 97.181 236.800 58.391 236.800 L 19.600 236.800 19.600 282.600 C 19.600 307.790,19.752 328.400,19.938 328.400 C 20.124 328.400,20.383 332.032,20.514 336.471 C 20.715 343.310,20.850 344.596,21.396 344.902 C 21.906 345.187,21.984 345.630,21.774 347.031 C 21.594 348.232,21.654 348.800,21.959 348.800 C 22.260 348.800,22.325 349.330,22.154 350.400 C 21.938 351.751,22.006 352.000,22.592 352.000 C 23.125 352.000,23.231 352.223,23.046 352.958 C 22.892 353.572,22.997 353.990,23.339 354.121 C 23.684 354.254,23.808 354.762,23.691 355.563 C 23.572 356.374,23.679 356.800,24.001 356.800 C 24.296 356.800,24.410 357.120,24.284 357.600 C 24.156 358.089,24.272 358.400,24.582 358.400 C 24.907 358.400,25.020 358.759,24.898 359.400 C 24.786 359.984,24.893 360.400,25.153 360.400 C 25.399 360.400,25.600 360.760,25.600 361.200 C 25.600 361.640,25.794 362.000,26.032 362.000 C 26.303 362.000,26.366 362.445,26.200 363.200 C 26.034 363.955,26.097 364.400,26.368 364.400 C 26.606 364.400,26.800 364.760,26.800 365.200 C 26.800 365.640,26.966 366.000,27.168 366.000 C 27.371 366.000,27.655 366.540,27.800 367.200 C 27.945 367.860,28.229 368.400,28.432 368.400 C 28.634 368.400,28.800 368.670,28.800 369.000 C 28.800 369.330,28.980 369.600,29.200 369.600 C 29.420 369.600,29.600 369.966,29.600 370.413 C 29.600 370.859,29.870 371.329,30.200 371.455 C 30.530 371.582,30.800 371.936,30.800 372.243 C 30.800 372.549,30.960 372.800,31.155 372.800 C 31.351 372.800,31.622 373.391,31.757 374.113 C 31.893 374.835,32.363 375.685,32.802 376.001 C 33.241 376.318,33.600 376.801,33.600 377.074 C 33.600 377.348,33.965 377.767,34.411 378.006 C 34.857 378.245,35.111 378.620,34.975 378.841 C 34.839 379.061,35.194 379.673,35.764 380.201 C 36.334 380.730,36.800 381.428,36.800 381.754 C 36.800 382.080,37.173 382.464,37.629 382.609 C 38.150 382.775,38.373 383.092,38.230 383.466 C 37.980 384.117,38.439 384.686,40.076 385.757 C 40.668 386.144,41.066 386.683,40.962 386.955 C 40.736 387.544,43.293 390.281,44.245 390.468 C 46.444 390.901,47.686 394.800,45.626 394.800 C 45.093 394.800,14.800 425.057,14.800 425.589 C 14.800 425.799,14.452 426.158,14.027 426.386 C 13.602 426.613,13.146 427.141,13.013 427.560 C 12.880 427.978,12.331 428.431,11.793 428.566 C 11.255 428.701,10.537 429.349,10.197 430.006 C 9.857 430.663,9.404 431.200,9.190 431.200 C 8.975 431.200,8.800 431.380,8.800 431.600 C 8.800 431.865,28.031 431.999,65.700 431.996 L 122.600 431.992 123.400 430.928 C 124.824 429.035,131.348 422.800,131.906 422.800 C 132.204 422.800,132.336 422.620,132.200 422.400 C 132.064 422.180,132.239 422.000,132.590 422.000 C 133.387 422.000,168.400 387.023,168.400 386.227 C 168.400 385.357,172.388 381.200,173.223 381.200 C 173.620 381.200,174.057 380.849,174.194 380.420 C 174.330 379.992,174.799 379.527,175.237 379.388 C 175.802 379.209,175.963 378.913,175.790 378.368 C 175.656 377.945,175.726 377.600,175.946 377.600 C 176.166 377.600,176.460 377.240,176.600 376.800 C 176.740 376.360,177.087 376.000,177.372 376.000 C 178.160 376.000,179.980 374.012,179.747 373.406 C 179.630 373.102,179.899 372.759,180.370 372.609 C 180.826 372.465,181.299 371.943,181.423 371.450 C 181.547 370.957,182.087 370.224,182.624 369.821 C 183.161 369.418,183.600 368.765,183.600 368.371 C 183.600 367.977,183.976 367.534,184.437 367.388 C 185.007 367.207,185.211 366.885,185.078 366.375 C 184.949 365.882,185.140 365.546,185.641 365.387 C 186.058 365.254,186.400 364.817,186.400 364.416 C 186.400 364.014,186.670 363.582,187.000 363.455 C 187.330 363.329,187.600 362.859,187.600 362.413 C 187.600 361.966,187.799 361.600,188.043 361.600 C 188.286 361.600,188.382 361.330,188.255 361.000 C 188.120 360.648,188.250 360.400,188.569 360.400 C 188.868 360.400,189.226 359.950,189.364 359.400 C 189.502 358.850,189.792 358.400,190.008 358.400 C 190.223 358.400,190.400 358.130,190.400 357.800 C 190.400 357.470,190.572 357.200,190.782 357.200 C 190.992 357.200,191.282 356.570,191.426 355.800 C 191.571 355.030,191.849 354.400,192.045 354.400 C 192.240 354.400,192.400 353.950,192.400 353.400 C 192.400 352.850,192.574 352.400,192.787 352.400 C 193.001 352.400,193.069 352.125,192.940 351.788 C 192.803 351.430,193.076 350.854,193.599 350.401 C 194.266 349.822,194.429 349.368,194.239 348.613 C 194.045 347.838,194.139 347.600,194.639 347.600 C 195.096 347.600,195.230 347.359,195.084 346.800 C 194.969 346.360,195.038 346.000,195.237 346.000 C 195.437 346.000,195.600 345.460,195.600 344.800 C 195.600 344.140,195.800 343.600,196.043 343.600 C 196.317 343.600,196.390 343.216,196.236 342.600 C 196.045 341.840,196.141 341.600,196.637 341.600 C 197.166 341.600,197.239 341.335,197.026 340.200 C 196.853 339.277,196.916 338.800,197.212 338.800 C 197.462 338.800,197.609 338.314,197.545 337.700 C 197.481 337.095,197.556 336.394,197.712 336.143 C 198.143 335.445,198.076 235.025,197.645 234.882 C 197.443 234.814,193.386 238.683,188.630 243.480 M312.400 245.600 C 312.400 248.661,312.439 248.799,313.300 248.768 C 313.795 248.751,313.975 248.646,313.700 248.535 C 313.363 248.399,313.200 247.366,313.200 245.367 C 313.200 243.656,313.031 242.400,312.800 242.400 C 312.567 242.400,312.400 243.733,312.400 245.600 M315.305 248.687 C 315.914 248.779,316.814 248.777,317.305 248.682 C 317.797 248.587,317.300 248.511,316.200 248.514 C 315.100 248.517,314.697 248.595,315.305 248.687 M329.505 248.683 C 330.002 248.779,330.722 248.775,331.105 248.675 C 331.487 248.575,331.080 248.496,330.200 248.501 C 329.320 248.505,329.007 248.587,329.505 248.683 M334.305 248.683 C 334.802 248.779,335.522 248.775,335.905 248.675 C 336.287 248.575,335.880 248.496,335.000 248.501 C 334.120 248.505,333.807 248.587,334.305 248.683 M351.911 248.693 C 352.851 248.778,354.291 248.777,355.111 248.691 C 355.930 248.605,355.160 248.536,353.400 248.537 C 351.640 248.539,350.970 248.609,351.911 248.693 M375.100 248.682 C 375.595 248.778,376.405 248.778,376.900 248.682 C 377.395 248.587,376.990 248.509,376.000 248.509 C 375.010 248.509,374.605 248.587,375.100 248.682 M379.500 248.682 C 379.995 248.778,380.805 248.778,381.300 248.682 C 381.795 248.587,381.390 248.509,380.400 248.509 C 379.410 248.509,379.005 248.587,379.500 248.682 M384.505 248.687 C 385.114 248.779,386.014 248.777,386.505 248.682 C 386.997 248.587,386.500 248.511,385.400 248.514 C 384.300 248.517,383.897 248.595,384.505 248.687 M285.600 355.000 C 285.600 355.530,291.644 355.600,337.600 355.600 C 383.556 355.600,389.600 355.530,389.600 355.000 C 389.600 354.470,383.556 354.400,337.600 354.400 C 291.644 354.400,285.600 354.470,285.600 355.000 " stroke="none" fill="#0a4571" fill-rule="evenodd"></path></g></svg>